<mxfile host="app.diagrams.net" modified="2023-12-18T21:35:17.382Z" agent="Mozilla/5.0 (Windows NT 10.0; Win64; x64) AppleWebKit/537.36 (KHTML, like Gecko) Chrome/120.0.0.0 Safari/537.36" etag="j_i98xFDtvi7Zy7LuDBN" version="22.1.11" type="github">
  <diagram id="C5RBs43oDa-KdzZeNtuy" name="Page-1">
    <mxGraphModel dx="1114" dy="616" grid="1" gridSize="10" guides="1" tooltips="1" connect="1" arrows="1" fold="1" page="1" pageScale="1" pageWidth="827" pageHeight="1169" math="0" shadow="0">
      <root>
        <mxCell id="WIyWlLk6GJQsqaUBKTNV-0" />
        <mxCell id="WIyWlLk6GJQsqaUBKTNV-1" parent="WIyWlLk6GJQsqaUBKTNV-0" />
        <mxCell id="u1ojLPWr58GX2bcUT-7Z-7" value="" style="edgeStyle=orthogonalEdgeStyle;rounded=0;orthogonalLoop=1;jettySize=auto;html=1;" edge="1" parent="WIyWlLk6GJQsqaUBKTNV-1" source="u1ojLPWr58GX2bcUT-7Z-3" target="u1ojLPWr58GX2bcUT-7Z-6">
          <mxGeometry relative="1" as="geometry" />
        </mxCell>
        <mxCell id="u1ojLPWr58GX2bcUT-7Z-3" value="Start" style="rounded=1;whiteSpace=wrap;html=1;fontSize=12;glass=0;strokeWidth=1;shadow=0;fillColor=#f8cecc;strokeColor=#b85450;" vertex="1" parent="WIyWlLk6GJQsqaUBKTNV-1">
          <mxGeometry x="320" y="10" width="120" height="40" as="geometry" />
        </mxCell>
        <mxCell id="u1ojLPWr58GX2bcUT-7Z-9" value="" style="edgeStyle=orthogonalEdgeStyle;rounded=0;orthogonalLoop=1;jettySize=auto;html=1;" edge="1" parent="WIyWlLk6GJQsqaUBKTNV-1" source="u1ojLPWr58GX2bcUT-7Z-6" target="u1ojLPWr58GX2bcUT-7Z-8">
          <mxGeometry relative="1" as="geometry" />
        </mxCell>
        <mxCell id="u1ojLPWr58GX2bcUT-7Z-6" value="Show Logo&amp;nbsp;" style="rounded=1;whiteSpace=wrap;html=1;fontSize=12;glass=0;strokeWidth=1;shadow=0;fillColor=#f5f5f5;fontColor=#333333;strokeColor=#666666;" vertex="1" parent="WIyWlLk6GJQsqaUBKTNV-1">
          <mxGeometry x="320" y="70" width="120" height="40" as="geometry" />
        </mxCell>
        <mxCell id="u1ojLPWr58GX2bcUT-7Z-13" value="" style="edgeStyle=orthogonalEdgeStyle;rounded=0;orthogonalLoop=1;jettySize=auto;html=1;" edge="1" parent="WIyWlLk6GJQsqaUBKTNV-1" source="u1ojLPWr58GX2bcUT-7Z-8" target="u1ojLPWr58GX2bcUT-7Z-12">
          <mxGeometry relative="1" as="geometry" />
        </mxCell>
        <mxCell id="u1ojLPWr58GX2bcUT-7Z-8" value="Ask For Name Input" style="rounded=1;whiteSpace=wrap;html=1;fontSize=12;glass=0;strokeWidth=1;shadow=0;fillColor=#dae8fc;strokeColor=#6c8ebf;" vertex="1" parent="WIyWlLk6GJQsqaUBKTNV-1">
          <mxGeometry x="320" y="130" width="120" height="40" as="geometry" />
        </mxCell>
        <mxCell id="u1ojLPWr58GX2bcUT-7Z-15" value="" style="edgeStyle=orthogonalEdgeStyle;rounded=0;orthogonalLoop=1;jettySize=auto;html=1;" edge="1" parent="WIyWlLk6GJQsqaUBKTNV-1" source="u1ojLPWr58GX2bcUT-7Z-12" target="u1ojLPWr58GX2bcUT-7Z-14">
          <mxGeometry relative="1" as="geometry" />
        </mxCell>
        <mxCell id="u1ojLPWr58GX2bcUT-7Z-12" value="Ask For Bid Price" style="rounded=1;whiteSpace=wrap;html=1;fontSize=12;glass=0;strokeWidth=1;shadow=0;fillColor=#dae8fc;strokeColor=#6c8ebf;" vertex="1" parent="WIyWlLk6GJQsqaUBKTNV-1">
          <mxGeometry x="320" y="190" width="120" height="40" as="geometry" />
        </mxCell>
        <mxCell id="u1ojLPWr58GX2bcUT-7Z-21" value="" style="edgeStyle=orthogonalEdgeStyle;rounded=0;orthogonalLoop=1;jettySize=auto;html=1;" edge="1" parent="WIyWlLk6GJQsqaUBKTNV-1" source="u1ojLPWr58GX2bcUT-7Z-14" target="u1ojLPWr58GX2bcUT-7Z-20">
          <mxGeometry relative="1" as="geometry" />
        </mxCell>
        <mxCell id="u1ojLPWr58GX2bcUT-7Z-14" value="Add Name And Bid in a dictionary" style="rounded=1;whiteSpace=wrap;html=1;fontSize=12;glass=0;strokeWidth=1;shadow=0;fillColor=#f8cecc;strokeColor=#b85450;" vertex="1" parent="WIyWlLk6GJQsqaUBKTNV-1">
          <mxGeometry x="320" y="250" width="120" height="40" as="geometry" />
        </mxCell>
        <mxCell id="u1ojLPWr58GX2bcUT-7Z-23" value="" style="edgeStyle=orthogonalEdgeStyle;rounded=0;orthogonalLoop=1;jettySize=auto;html=1;" edge="1" parent="WIyWlLk6GJQsqaUBKTNV-1" source="u1ojLPWr58GX2bcUT-7Z-20" target="u1ojLPWr58GX2bcUT-7Z-22">
          <mxGeometry relative="1" as="geometry" />
        </mxCell>
        <mxCell id="u1ojLPWr58GX2bcUT-7Z-25" value="" style="edgeStyle=orthogonalEdgeStyle;rounded=0;orthogonalLoop=1;jettySize=auto;html=1;" edge="1" parent="WIyWlLk6GJQsqaUBKTNV-1" source="u1ojLPWr58GX2bcUT-7Z-20" target="u1ojLPWr58GX2bcUT-7Z-24">
          <mxGeometry relative="1" as="geometry" />
        </mxCell>
        <mxCell id="u1ojLPWr58GX2bcUT-7Z-20" value="&lt;br&gt;&lt;font style=&quot;&quot;&gt;&lt;span style=&quot;color: rgb(0, 0, 0); font-family: Helvetica; font-style: normal; font-variant-ligatures: normal; font-variant-caps: normal; font-weight: 400; letter-spacing: normal; orphans: 2; text-align: center; text-indent: 0px; text-transform: none; widows: 2; word-spacing: 0px; -webkit-text-stroke-width: 0px; background-color: rgb(251, 251, 251); text-decoration-thickness: initial; text-decoration-style: initial; text-decoration-color: initial; float: none; display: inline !important;&quot;&gt;&lt;font style=&quot;font-size: 12px;&quot;&gt;Ask if there is another bidder&lt;/font&gt;&lt;/span&gt;&lt;br&gt;&lt;/font&gt;" style="rhombus;whiteSpace=wrap;html=1;rounded=1;glass=0;strokeWidth=1;shadow=0;fillColor=#d5e8d4;strokeColor=#82b366;" vertex="1" parent="WIyWlLk6GJQsqaUBKTNV-1">
          <mxGeometry x="270" y="320" width="220" height="90" as="geometry" />
        </mxCell>
        <mxCell id="u1ojLPWr58GX2bcUT-7Z-28" style="edgeStyle=orthogonalEdgeStyle;rounded=0;orthogonalLoop=1;jettySize=auto;html=1;" edge="1" parent="WIyWlLk6GJQsqaUBKTNV-1" source="u1ojLPWr58GX2bcUT-7Z-22">
          <mxGeometry relative="1" as="geometry">
            <mxPoint x="310" y="40" as="targetPoint" />
            <Array as="points">
              <mxPoint x="40" y="440" />
              <mxPoint x="40" y="40" />
            </Array>
          </mxGeometry>
        </mxCell>
        <mxCell id="u1ojLPWr58GX2bcUT-7Z-22" value="Clear Output" style="whiteSpace=wrap;html=1;fillColor=#f8cecc;strokeColor=#b85450;rounded=1;glass=0;strokeWidth=1;shadow=0;" vertex="1" parent="WIyWlLk6GJQsqaUBKTNV-1">
          <mxGeometry x="60" y="410" width="120" height="60" as="geometry" />
        </mxCell>
        <mxCell id="u1ojLPWr58GX2bcUT-7Z-24" value="Find the greatest bid in the dictionary and declare it as winner&amp;nbsp;" style="whiteSpace=wrap;html=1;fillColor=#d5e8d4;strokeColor=#82b366;rounded=1;glass=0;strokeWidth=1;shadow=0;" vertex="1" parent="WIyWlLk6GJQsqaUBKTNV-1">
          <mxGeometry x="630" y="410" width="120" height="60" as="geometry" />
        </mxCell>
        <mxCell id="u1ojLPWr58GX2bcUT-7Z-26" value="Yes" style="text;html=1;align=center;verticalAlign=middle;resizable=0;points=[];autosize=1;strokeColor=none;fillColor=none;" vertex="1" parent="WIyWlLk6GJQsqaUBKTNV-1">
          <mxGeometry x="230" y="338" width="40" height="30" as="geometry" />
        </mxCell>
        <mxCell id="u1ojLPWr58GX2bcUT-7Z-27" value="No" style="text;html=1;align=center;verticalAlign=middle;resizable=0;points=[];autosize=1;strokeColor=none;fillColor=none;" vertex="1" parent="WIyWlLk6GJQsqaUBKTNV-1">
          <mxGeometry x="500" y="338" width="40" height="30" as="geometry" />
        </mxCell>
      </root>
    </mxGraphModel>
  </diagram>
</mxfile>
